<svg id="レイヤー_1" data-name="レイヤー 1" xmlns="http://www.w3.org/2000/svg" xmlns:xlink="http://www.w3.org/1999/xlink" viewBox="0 0 139.952 2"><defs><style>.cls-1,.cls-4{fill:none;}.cls-2{fill:#111;fill-rule:evenodd;}.cls-3{clip-path:url(#clip-path);}.cls-4{stroke:#fff;stroke-linecap:round;stroke-miterlimit:10;stroke-width:3px;stroke-dasharray:5.994 17.981;}</style><clipPath id="clip-path"><rect class="cls-1" x="472.97" y="585.409" width="1440" height="1043.843"/></clipPath></defs><path class="cls-2" d="M5,0H3A1,1,0,0,0,3,2H5A1,1,0,0,0,5,0ZM15,0H13a1,1,0,0,0,0,2h2a1,1,0,0,0,0-2ZM25,0H23a1,1,0,0,0,0,2h2a1,1,0,0,0,0-2ZM35,0H33a1,1,0,0,0,0,2h2a1,1,0,0,0,0-2ZM45,0H43a1,1,0,0,0,0,2h2a1,1,0,0,0,0-2ZM55,0H53a1,1,0,0,0,0,2h2a1,1,0,0,0,0-2ZM65,0H63a1,1,0,0,0,0,2h2a1,1,0,0,0,0-2ZM75,0H73a1,1,0,0,0,0,2h2a1,1,0,0,0,0-2ZM85,0H83a1,1,0,0,0,0,2h2a1,1,0,0,0,0-2ZM95,0H93a1,1,0,0,0,0,2h2a1,1,0,0,0,0-2Zm10,0h-2a1,1,0,0,0,0,2h2a1,1,0,0,0,0-2Zm10,0h-2a1,1,0,0,0,0,2h2a1,1,0,0,0,0-2Zm10,0h-2a1,1,0,0,0,0,2h2a1,1,0,0,0,0-2Zm10,0h-2a1,1,0,0,0,0,2h2a1,1,0,0,0,0-2Z"/><g class="cls-3"><circle class="cls-4" cx="100.162" cy="112.793" r="1095"/><circle class="cls-4" cx="634.162" cy="375.793" r="1095"/></g></svg>