<?xml version="1.0" encoding="utf-8"?>
<!-- Generator: Adobe Illustrator 28.1.0, SVG Export Plug-In . SVG Version: 6.00 Build 0)  -->
<svg version="1.1" id="Capa_1" xmlns="http://www.w3.org/2000/svg" xmlns:xlink="http://www.w3.org/1999/xlink" x="0px" y="0px"
	 viewBox="0 0 137.49 57.06" style="enable-background:new 0 0 137.49 57.06;" xml:space="preserve">
<style type="text/css">
	.st0{fill:#F4DA1F;}
	.st1{fill:#2A2115;}
	.st2{enable-background:new    ;}
	.st3{fill:#393629;}
</style>
<g>
	<path class="st0" d="M23.55,51.26c-0.47-1.42-2.73-1.42-3.19,0c-0.05,0.14-0.07,0.29-0.08,0.45c0,0.04-0.01,0.08-0.01,0.13
		c-0.03,2.19,3.41,2.19,3.38,0c0-0.04-0.01-0.08-0.01-0.13C23.62,51.54,23.59,51.39,23.55,51.26z"/>
	<g>
		<g>
			<path class="st1" d="M36.96,51.72c1.23-0.86,2.39-1.81,3.45-2.86c-0.82-2.98-4.93-9.62-6.88-13.47
				c-0.54-1.06-1.21-1.83-2.08-2.35c1.11-3.9-2.22-6.12-2.62-10.26c-0.92,2.57-2.67,4.75-4.33,6.02c0,0,0,0,0,0l1.06,3.26
				c0.02,0.04,0.02,0.08,0.04,0.13c-0.09,0.61-0.28,1.18-0.54,1.69c-1.48,2.87-5.26,3.6-6.79-1.61c0.02-0.07,0.04-0.14,0.06-0.21
				l0.86-2.65l0.15-0.45h0c-1.82-1.37-3.62-3.94-4.55-6.68c-0.55,3.99-3.72,7.57-2.72,10.98c-0.69,0.36-1.31,0.84-1.76,1.48
				c-2.18,3.42-5.56,9.87-6.68,13.58c-0.02,0.3,0,0.6,0.06,0.89c1.01,0.95,2.09,1.83,3.23,2.62c-0.42-2.23-0.71-3.87-0.74-3.91
				c-0.09-0.16-0.12-0.28-0.07-0.42c0.3-0.56,0.62-1.68,1.32-1.61h29.09c0.54-0.06,1.26,1.41,1.29,1.55
				c0.01,0.02,0.01,0.06,0.01,0.06c0.02,0.13,0.03,0.27,0,0.42C37.66,48.06,37.36,49.62,36.96,51.72z"/>
			<path class="st1" d="M30.1,6.92c-0.95-4.74-4.09,0.59-5.5,3.36c-0.78-0.19-1.66-0.3-2.66-0.3c-0.85,0-1.62,0.09-2.32,0.24
				c-1.49-2.83-4.41-7.56-5.33-3.01c-0.64,3.16-0.42,5.6-0.06,7.23c-1.33,2.78-0.92,5.84,0.07,5.96c0.02,0,0.04,0.01,0.06,0.01
				c0.03-0.49,0.1-0.9,0.22-1.26c0.02-0.06,0.04-0.12,0.06-0.17c0.19-0.51,0.46-0.89,0.8-1.2c0.93-0.38,5.22-1.86,12.5-0.48
				c0.07,0.01,0.14,0.02,0.21,0.03c0.39,0.34,0.72,0.75,0.95,1.27c0.07,0.15,0.12,0.33,0.17,0.5c0.1,0.35,0.17,0.74,0.17,1.19
				c0,0.01,0,0.02,0,0.03c0.56,0.29,1.24-2.37,0.45-5.06C30.36,13.73,30.9,10.9,30.1,6.92z"/>
		</g>
	</g>
	<path class="st1" d="M14.79,22.72c0,0-2.49,8.59,0,11.63s-8.63,4.09-3.48-12.78c2.95-9.63,4.15-10.04,4.22-6.8
		C15.59,17.25,14.79,22.72,14.79,22.72z"/>
	<path class="st1" d="M29.01,24.03c0,0,2.49,8.59,0,11.63c-2.49,3.04,8.63,4.09,3.48-12.78c-2.95-9.63-4.15-10.04-4.22-6.8
		C28.2,18.57,29.01,24.03,29.01,24.03z"/>
	<g class="st2">
		<path class="st3" d="M53.95,39.61c-1.9,0-3.6-0.45-5.08-1.35c-1.49-0.9-2.65-2.17-3.5-3.83c-0.84-1.65-1.26-3.58-1.26-5.8
			c0-2.24,0.42-4.18,1.26-5.83c0.84-1.65,2-2.93,3.5-3.84c1.49-0.91,3.18-1.37,5.08-1.37c1.9,0,3.58,0.46,5.06,1.37
			c1.47,0.91,2.63,2.19,3.48,3.84c0.85,1.65,1.27,3.6,1.27,5.83c0,2.22-0.43,4.16-1.27,5.8c-0.85,1.65-2.01,2.93-3.48,3.83
			C57.53,39.16,55.85,39.61,53.95,39.61z M53.95,36.25c1.26,0,2.35-0.32,3.27-0.95s1.64-1.52,2.15-2.67c0.51-1.15,0.77-2.48,0.77-4
			c0-1.54-0.25-2.88-0.77-4.04c-0.51-1.15-1.23-2.04-2.15-2.67s-2.01-0.95-3.27-0.95c-1.24,0-2.33,0.32-3.27,0.95
			c-0.94,0.63-1.67,1.52-2.17,2.67c-0.51,1.15-0.77,2.5-0.77,4.04c0,1.52,0.25,2.86,0.77,4c0.51,1.15,1.23,2.04,2.17,2.67
			C51.62,35.94,52.71,36.25,53.95,36.25z"/>
		<path class="st3" d="M75.07,39.61c-1.9,0-3.58-0.45-5.06-1.35c-1.47-0.9-2.62-2.17-3.45-3.83c-0.83-1.65-1.25-3.58-1.25-5.8
			c0-2.24,0.41-4.18,1.25-5.83c0.83-1.65,1.98-2.93,3.45-3.84c1.47-0.91,3.15-1.37,5.06-1.37c1.18,0,2.3,0.17,3.36,0.5
			c1.06,0.33,2,0.79,2.82,1.37c0.48,0.32,0.74,0.7,0.77,1.12s-0.12,0.87-0.46,1.3c-0.36,0.44-0.74,0.67-1.14,0.69
			c-0.4,0.02-0.84-0.12-1.32-0.42c-0.56-0.36-1.18-0.64-1.86-0.85c-0.68-0.21-1.4-0.32-2.16-0.32c-1.26,0-2.35,0.32-3.25,0.96
			c-0.91,0.64-1.62,1.54-2.12,2.69c-0.5,1.15-0.75,2.49-0.75,4c0,1.5,0.25,2.83,0.75,3.97c0.5,1.15,1.2,2.05,2.12,2.69
			c0.91,0.64,1.99,0.96,3.25,0.96c0.94,0,1.73-0.09,2.35-0.29c0.63-0.19,1.18-0.42,1.67-0.71v-4.5h-1.68
			c-1.18,0-1.77-0.54-1.77-1.62s0.59-1.62,1.77-1.62h3.42c1.18,0,1.77,0.6,1.77,1.8v6.81c0,0.5-0.08,0.92-0.23,1.25
			c-0.15,0.33-0.42,0.58-0.82,0.76c-0.86,0.44-1.85,0.79-2.96,1.07C77.48,39.48,76.31,39.61,75.07,39.61z"/>
		<path class="st3" d="M86.5,39.13c-0.58,0-0.98-0.17-1.2-0.51c-0.22-0.34-0.22-0.8,0-1.38l6.78-17.79c0.3-0.88,0.93-1.32,1.89-1.32
			h0.24c0.96,0,1.59,0.44,1.89,1.32l6.81,17.79c0.22,0.58,0.21,1.04-0.01,1.38c-0.23,0.34-0.64,0.51-1.21,0.51h-0.57
			c-0.94,0-1.56-0.45-1.86-1.35l-1.17-3.27h-8.07l-1.17,3.27c-0.3,0.9-0.92,1.35-1.86,1.35H86.5z M91.15,31.3h5.82l-2.88-8.19
			L91.15,31.3z"/>
		<path class="st3" d="M107.8,39.13c-1.16,0-1.74-0.59-1.74-1.77V19.9c0-0.68,0.17-1.14,0.53-1.39c0.35-0.25,0.87-0.38,1.54-0.38
			c0.92,0,1.62,0.4,2.1,1.2l5.31,8.88l5.25-8.85c0.28-0.5,0.6-0.83,0.97-0.99s0.86-0.24,1.46-0.24c1.18,0,1.77,0.59,1.77,1.77v17.46
			c0,1.18-0.59,1.77-1.77,1.77s-1.77-0.59-1.77-1.77v-13.2l-4.23,7.32c-0.42,0.82-0.99,1.23-1.71,1.23s-1.29-0.41-1.71-1.23
			l-4.26-7.32v13.2C109.54,38.54,108.96,39.13,107.8,39.13z"/>
		<path class="st3" d="M130.93,39.13c-1.14,0-1.71-0.59-1.71-1.77V19.9c0-1.18,0.57-1.77,1.71-1.77c1.16,0,1.74,0.59,1.74,1.77
			v17.46C132.67,38.54,132.09,39.13,130.93,39.13z"/>
	</g>
	<g class="st2">
		<path class="st3" d="M48.28,51.47c-0.31,0-0.49-0.15-0.56-0.46l-1.55-6.67c-0.04-0.18-0.02-0.32,0.05-0.42
			c0.07-0.1,0.18-0.15,0.34-0.15c0.35,0,0.55,0.15,0.61,0.46l1.2,5.41l1.47-5.42c0.07-0.3,0.26-0.45,0.55-0.45
			c0.28,0,0.46,0.15,0.55,0.45l1.47,5.42l1.19-5.41c0.06-0.31,0.25-0.46,0.56-0.46c0.18,0,0.31,0.05,0.39,0.15s0.1,0.25,0.06,0.43
			l-1.56,6.66c-0.07,0.31-0.25,0.46-0.56,0.46c-0.32,0-0.51-0.15-0.58-0.45l-1.52-5.58l-1.53,5.58
			C48.78,51.32,48.59,51.47,48.28,51.47z"/>
		<path class="st3" d="M56.36,51.47c-0.34,0-0.52-0.18-0.52-0.53V44.3c0-0.35,0.17-0.53,0.52-0.53h3.94c0.35,0,0.53,0.16,0.53,0.47
			s-0.18,0.47-0.53,0.47h-3.45v2.34h3.11c0.34,0,0.52,0.16,0.52,0.48c0,0.32-0.17,0.47-0.52,0.47h-3.11v2.51h3.59
			c0.35,0,0.53,0.16,0.53,0.47s-0.18,0.47-0.53,0.47H56.36z"/>
		<path class="st3" d="M62.72,51.47c-0.32,0-0.47-0.16-0.47-0.48v-6.73c0-0.32,0.16-0.48,0.47-0.48h2.57c0.68,0,1.22,0.17,1.6,0.5
			c0.38,0.33,0.58,0.82,0.58,1.45c0,0.43-0.1,0.8-0.3,1.09c-0.2,0.29-0.46,0.5-0.78,0.62c0.42,0.1,0.76,0.32,1.03,0.69
			s0.4,0.79,0.4,1.29c0,0.69-0.2,1.21-0.61,1.55c-0.41,0.34-1,0.52-1.78,0.52H62.72z M63.25,47.03h1.94c0.39,0,0.69-0.11,0.89-0.32
			c0.21-0.21,0.31-0.5,0.31-0.85c0-0.76-0.42-1.14-1.27-1.14h-1.87V47.03z M63.25,50.53h2.07c0.5,0,0.86-0.1,1.09-0.3
			c0.23-0.2,0.34-0.52,0.34-0.94c0-0.41-0.14-0.73-0.41-0.96c-0.27-0.23-0.62-0.34-1.03-0.34h-2.06V50.53z"/>
		<path class="st3" d="M72.82,51.47c-0.34,0-0.52-0.18-0.52-0.53V44.3c0-0.35,0.17-0.53,0.52-0.53h1.85c0.81,0,1.49,0.16,2.04,0.47
			s0.98,0.76,1.27,1.34c0.29,0.58,0.43,1.26,0.43,2.04c0,0.78-0.15,1.46-0.43,2.03c-0.29,0.58-0.71,1.03-1.27,1.34
			s-1.23,0.47-2.04,0.47H72.82z M73.31,50.53h1.3c0.62,0,1.13-0.12,1.53-0.37c0.41-0.25,0.71-0.59,0.92-1.02
			c0.21-0.44,0.31-0.94,0.31-1.51c0-0.58-0.1-1.09-0.31-1.52c-0.21-0.43-0.51-0.77-0.92-1.02c-0.41-0.25-0.92-0.37-1.53-0.37h-1.3
			V50.53z"/>
		<path class="st3" d="M80.22,51.47c-0.34,0-0.52-0.18-0.52-0.53V44.3c0-0.35,0.17-0.53,0.52-0.53h3.94c0.35,0,0.53,0.16,0.53,0.47
			s-0.18,0.47-0.53,0.47h-3.45v2.34h3.11c0.34,0,0.52,0.16,0.52,0.48c0,0.32-0.17,0.47-0.52,0.47h-3.11v2.51h3.59
			c0.35,0,0.53,0.16,0.53,0.47s-0.18,0.47-0.53,0.47H80.22z"/>
		<path class="st3" d="M88.73,51.49c-0.14,0-0.27-0.04-0.39-0.12s-0.21-0.18-0.27-0.32l-2.42-6.68c-0.15-0.4-0.01-0.61,0.42-0.61
			c0.3,0,0.5,0.14,0.59,0.43l2.06,5.85l2.07-5.85c0.1-0.29,0.31-0.43,0.62-0.43c0.18,0,0.31,0.06,0.38,0.17
			c0.07,0.11,0.08,0.26,0.02,0.44l-2.43,6.68c-0.05,0.14-0.13,0.25-0.25,0.32S88.87,51.49,88.73,51.49z"/>
		<path class="st3" d="M93.54,51.47c-0.35,0-0.52-0.18-0.52-0.53V44.3c0-0.35,0.17-0.53,0.52-0.53h3.94c0.35,0,0.53,0.16,0.53,0.47
			s-0.18,0.47-0.53,0.47h-3.45v2.34h3.11c0.34,0,0.52,0.16,0.52,0.48c0,0.32-0.17,0.47-0.52,0.47h-3.11v2.51h3.59
			c0.35,0,0.53,0.16,0.53,0.47s-0.18,0.47-0.53,0.47H93.54z"/>
		<path class="st3" d="M99.95,51.47c-0.34,0-0.52-0.18-0.52-0.53V44.3c0-0.35,0.16-0.53,0.49-0.53c0.34,0,0.51,0.18,0.51,0.53v6.23
			h3.6c0.35,0,0.53,0.16,0.53,0.47s-0.18,0.47-0.53,0.47H99.95z"/>
		<path class="st3" d="M108.82,51.64c-0.7,0-1.31-0.17-1.85-0.5s-0.96-0.8-1.26-1.4c-0.3-0.6-0.46-1.31-0.46-2.12
			c0-0.81,0.15-1.52,0.46-2.13s0.72-1.07,1.26-1.41c0.54-0.33,1.15-0.5,1.85-0.5c0.7,0,1.31,0.17,1.84,0.5
			c0.53,0.33,0.95,0.8,1.25,1.41s0.46,1.31,0.46,2.13c0,0.81-0.15,1.52-0.46,2.12c-0.3,0.6-0.72,1.07-1.25,1.4
			S109.52,51.64,108.82,51.64z M108.82,50.65c0.5,0,0.94-0.12,1.31-0.37c0.38-0.25,0.67-0.6,0.88-1.05c0.21-0.45,0.31-0.99,0.31-1.6
			c0-0.62-0.1-1.16-0.31-1.61c-0.21-0.45-0.5-0.8-0.88-1.05c-0.38-0.25-0.82-0.37-1.31-0.37c-0.5,0-0.94,0.12-1.31,0.37
			c-0.38,0.25-0.67,0.6-0.88,1.05c-0.21,0.45-0.32,0.99-0.32,1.61c0,0.62,0.11,1.15,0.32,1.6c0.21,0.45,0.51,0.8,0.88,1.05
			C107.89,50.52,108.33,50.65,108.82,50.65z"/>
		<path class="st3" d="M114.18,51.47c-0.33,0-0.49-0.18-0.49-0.53v-6.65c0-0.34,0.17-0.52,0.52-0.52h2.93
			c0.73,0,1.29,0.17,1.69,0.51c0.4,0.34,0.6,0.87,0.6,1.61c0,0.74-0.2,1.28-0.6,1.63c-0.4,0.34-0.96,0.52-1.69,0.52h-2.44v2.92
			C114.69,51.3,114.52,51.47,114.18,51.47z M114.69,47.07h2.32c0.44,0,0.78-0.09,1.01-0.28c0.23-0.19,0.35-0.49,0.35-0.91
			c0-0.41-0.12-0.71-0.35-0.89c-0.23-0.18-0.57-0.28-1.01-0.28h-2.32V47.07z"/>
		<path class="st3" d="M121.13,51.47c-0.34,0-0.52-0.18-0.52-0.53V44.3c0-0.35,0.17-0.53,0.52-0.53h3.94c0.35,0,0.53,0.16,0.53,0.47
			s-0.18,0.47-0.53,0.47h-3.45v2.34h3.11c0.34,0,0.52,0.16,0.52,0.48c0,0.32-0.17,0.47-0.52,0.47h-3.11v2.51h3.59
			c0.35,0,0.53,0.16,0.53,0.47s-0.18,0.47-0.53,0.47H121.13z"/>
		<path class="st3" d="M127.52,51.47c-0.33,0-0.5-0.18-0.5-0.53v-6.65c0-0.34,0.17-0.52,0.52-0.52h2.93c0.73,0,1.29,0.17,1.69,0.51
			c0.4,0.34,0.6,0.87,0.6,1.61c0,0.65-0.16,1.15-0.47,1.5c-0.31,0.34-0.77,0.55-1.38,0.6l1.49,2.87c0.09,0.18,0.11,0.33,0.06,0.45
			c-0.05,0.11-0.16,0.17-0.33,0.17h-0.15c-0.29,0-0.5-0.13-0.62-0.4l-1.5-3.05h-1.83v2.92C128.03,51.3,127.86,51.47,127.52,51.47z
			 M128.03,47.07h2.32c0.44,0,0.78-0.09,1.01-0.28c0.23-0.19,0.35-0.49,0.35-0.91c0-0.41-0.12-0.71-0.35-0.89
			c-0.23-0.18-0.57-0.28-1.01-0.28h-2.32V47.07z"/>
	</g>
</g>
<g>
</g>
<g>
</g>
<g>
</g>
<g>
</g>
<g>
</g>
<g>
</g>
</svg>
