<?xml version="1.0" encoding="utf-8"?>
<!-- Generator: Adobe Illustrator 28.1.0, SVG Export Plug-In . SVG Version: 6.00 Build 0)  -->
<svg version="1.1" id="Capa_1" xmlns="http://www.w3.org/2000/svg" xmlns:xlink="http://www.w3.org/1999/xlink" x="0px" y="0px"
	 viewBox="0 0 100 106" style="enable-background:new 0 0 100 106;" xml:space="preserve">
<style type="text/css">
	.st0{fill:#F6F1E8;}
	.st1{fill:#FFFFFF;}
	.st2{fill:#F4DA1E;}
	.st3{fill:#2A2115;}
	.st4{enable-background:new    ;}
	.st5{fill:#383529;}
</style>
<path id="Rectángulo_17_00000012446681347175560500000012367186155394162085_" class="st0" d="M22.01,4.84h53.35
	c4.15,0,7.51,3.29,7.51,7.35v25.74c0,4.06-3.36,7.35-7.51,7.35H22.01c-4.15,0-7.51-3.29-7.51-7.35V12.19
	C14.5,8.13,17.86,4.84,22.01,4.84z"/>
<g>
	<polygon class="st1" points="46.96,18.55 56.61,18.55 58.26,30.2 55.77,43.35 43.52,47.2 39.65,32.88 40.7,18.74 	"/>
	<path class="st2" d="M51.41,60.64c-0.53-1.61-3.09-1.61-3.62,0c-0.05,0.16-0.08,0.33-0.09,0.51c0,0.05-0.01,0.09-0.01,0.14
		c-0.04,2.49,3.87,2.49,3.83,0c0-0.05-0.01-0.09-0.01-0.14C51.5,60.97,51.46,60.8,51.41,60.64z"/>
	<g>
		<g>
			<path class="st3" d="M66.47,61.02c1.4-0.97,2.71-2.06,3.92-3.25c-0.93-3.38-5.6-10.91-7.8-15.28c-0.61-1.21-1.38-2.08-2.35-2.67
				c1.26-4.43-2.52-6.94-2.97-11.63c-1.04,2.91-3.03,5.38-4.91,6.82c0,0,0,0,0,0l1.2,3.69c0.02,0.05,0.03,0.1,0.04,0.15
				c-0.11,0.7-0.32,1.34-0.61,1.91c-1.68,3.25-5.97,4.08-7.69-1.82c0.03-0.08,0.04-0.15,0.07-0.23l0.98-3.01l0.17-0.51h0
				c-2.07-1.56-4.11-4.47-5.16-7.57c-0.62,4.52-4.22,8.58-3.09,12.44c-0.78,0.41-1.48,0.95-2,1.68c-2.47,3.87-6.31,11.19-7.58,15.4
				c-0.02,0.34,0.01,0.68,0.07,1.01c1.14,1.08,2.36,2.07,3.66,2.97c-0.48-2.53-0.8-4.39-0.84-4.43c-0.1-0.19-0.14-0.32-0.08-0.47
				c0.34-0.63,0.71-1.9,1.5-1.82h32.98c0.62-0.06,1.43,1.6,1.46,1.75c0.01,0.02,0.01,0.07,0.01,0.07c0.03,0.15,0.03,0.31,0,0.47
				C67.27,56.87,66.93,58.64,66.47,61.02z"/>
			<path class="st3" d="M58.7,10.22c-1.08-5.37-4.63,0.67-6.24,3.8c-0.89-0.22-1.89-0.34-3.02-0.34c-0.96,0-1.84,0.1-2.63,0.27
				c-1.68-3.21-5-8.57-6.04-3.42c-0.72,3.58-0.48,6.35-0.07,8.2c-1.51,3.15-1.04,6.62,0.08,6.75c0.02,0,0.04,0.01,0.06,0.01
				c0.03-0.56,0.12-1.02,0.24-1.43c0.02-0.07,0.04-0.13,0.07-0.2c0.22-0.58,0.53-1.01,0.9-1.36c1.06-0.43,5.92-2.11,14.17-0.54
				c0.08,0.02,0.16,0.02,0.23,0.03c0.44,0.39,0.82,0.85,1.08,1.45c0.08,0.18,0.14,0.37,0.19,0.57c0.11,0.4,0.19,0.84,0.19,1.34
				c0,0.01,0,0.02,0,0.04c0.64,0.33,1.4-2.69,0.5-5.74C58.99,17.95,59.61,14.74,58.7,10.22z"/>
		</g>
	</g>
	<path class="st3" d="M41.33,28.13c0,0-2.82,9.74,0,13.19s-9.79,4.63-3.94-14.49c3.34-10.92,4.7-11.38,4.79-7.71
		C42.24,21.94,41.33,28.13,41.33,28.13z"/>
	<path class="st3" d="M57.46,29.63c0,0,2.82,9.74,0,13.19c-2.82,3.45,9.79,4.63,3.94-14.49c-3.34-10.92-4.7-11.38-4.79-7.71
		C56.54,23.43,57.46,29.63,57.46,29.63z"/>
	<g class="st4">
		<path class="st5" d="M14.37,89.3c-1.9,0-3.6-0.45-5.08-1.35c-1.49-0.9-2.65-2.17-3.5-3.83c-0.84-1.65-1.26-3.58-1.26-5.8
			c0-2.24,0.42-4.18,1.26-5.83c0.84-1.65,2-2.93,3.5-3.84c1.49-0.91,3.18-1.37,5.08-1.37c1.9,0,3.58,0.46,5.06,1.37
			c1.47,0.91,2.63,2.19,3.48,3.84c0.85,1.65,1.27,3.6,1.27,5.83c0,2.22-0.43,4.16-1.27,5.8c-0.85,1.65-2.01,2.93-3.48,3.83
			C17.95,88.85,16.27,89.3,14.37,89.3z M14.37,85.94c1.26,0,2.35-0.32,3.27-0.95s1.64-1.52,2.15-2.67c0.51-1.15,0.77-2.48,0.77-4
			c0-1.54-0.25-2.88-0.77-4.04c-0.51-1.15-1.23-2.04-2.15-2.67s-2.01-0.95-3.27-0.95c-1.24,0-2.33,0.32-3.27,0.95
			c-0.94,0.63-1.67,1.52-2.17,2.67c-0.51,1.15-0.77,2.5-0.77,4.04c0,1.52,0.25,2.86,0.77,4c0.51,1.15,1.23,2.04,2.17,2.67
			C12.04,85.63,13.13,85.94,14.37,85.94z"/>
		<path class="st5" d="M35.49,89.3c-1.9,0-3.58-0.45-5.06-1.35c-1.47-0.9-2.62-2.17-3.45-3.83c-0.83-1.65-1.25-3.58-1.25-5.8
			c0-2.24,0.41-4.18,1.25-5.83c0.83-1.65,1.98-2.93,3.45-3.84c1.47-0.91,3.15-1.37,5.06-1.37c1.18,0,2.3,0.17,3.36,0.5
			s2,0.79,2.82,1.37c0.48,0.32,0.74,0.7,0.77,1.12c0.03,0.43-0.12,0.87-0.46,1.3c-0.36,0.44-0.74,0.67-1.14,0.69
			c-0.4,0.02-0.84-0.12-1.32-0.42c-0.56-0.36-1.18-0.64-1.86-0.85c-0.68-0.21-1.4-0.32-2.16-0.32c-1.26,0-2.35,0.32-3.25,0.96
			c-0.91,0.64-1.62,1.54-2.12,2.69c-0.5,1.15-0.75,2.49-0.75,4c0,1.5,0.25,2.83,0.75,3.97c0.5,1.15,1.2,2.05,2.12,2.69
			c0.91,0.64,1.99,0.96,3.25,0.96c0.94,0,1.73-0.09,2.35-0.29c0.63-0.19,1.19-0.42,1.67-0.71v-4.5h-1.68
			c-1.18,0-1.77-0.54-1.77-1.62s0.59-1.62,1.77-1.62h3.42c1.18,0,1.77,0.6,1.77,1.8v6.81c0,0.5-0.07,0.92-0.23,1.25
			c-0.15,0.33-0.42,0.58-0.82,0.76c-0.86,0.44-1.85,0.79-2.96,1.07C37.9,89.17,36.73,89.3,35.49,89.3z"/>
		<path class="st5" d="M46.92,88.82c-0.58,0-0.98-0.17-1.2-0.51s-0.22-0.8,0-1.38l6.78-17.79c0.3-0.88,0.93-1.32,1.89-1.32h0.24
			c0.96,0,1.59,0.44,1.89,1.32l6.81,17.79c0.22,0.58,0.21,1.04-0.02,1.38s-0.63,0.51-1.21,0.51h-0.57c-0.94,0-1.56-0.45-1.86-1.35
			L58.5,84.2h-8.07l-1.17,3.27c-0.3,0.9-0.92,1.35-1.86,1.35H46.92z M51.57,80.99h5.82l-2.88-8.19L51.57,80.99z"/>
		<path class="st5" d="M68.22,88.82c-1.16,0-1.74-0.59-1.74-1.77V69.59c0-0.68,0.17-1.14,0.52-1.39c0.35-0.25,0.87-0.38,1.55-0.38
			c0.92,0,1.62,0.4,2.1,1.2l5.31,8.88l5.25-8.85c0.28-0.5,0.61-0.83,0.98-0.99s0.85-0.24,1.46-0.24c1.18,0,1.77,0.59,1.77,1.77
			v17.46c0,1.18-0.59,1.77-1.77,1.77c-1.18,0-1.77-0.59-1.77-1.77v-13.2l-4.23,7.32c-0.42,0.82-0.99,1.23-1.71,1.23
			c-0.72,0-1.29-0.41-1.71-1.23l-4.26-7.32v13.2C69.96,88.23,69.38,88.82,68.22,88.82z"/>
		<path class="st5" d="M91.35,88.82c-1.14,0-1.71-0.59-1.71-1.77V69.59c0-1.18,0.57-1.77,1.71-1.77c1.16,0,1.74,0.59,1.74,1.77
			v17.46C93.09,88.23,92.51,88.82,91.35,88.82z"/>
	</g>
	<g class="st4">
		<path class="st5" d="M8.7,101.16c-0.31,0-0.49-0.15-0.56-0.46l-1.55-6.67c-0.04-0.18-0.02-0.32,0.05-0.42
			c0.07-0.1,0.18-0.15,0.34-0.15c0.35,0,0.55,0.15,0.61,0.46l1.2,5.41l1.47-5.42c0.07-0.3,0.26-0.45,0.55-0.45
			c0.28,0,0.46,0.15,0.55,0.45l1.47,5.42l1.19-5.41c0.06-0.31,0.25-0.46,0.56-0.46c0.18,0,0.31,0.05,0.39,0.15
			c0.08,0.1,0.1,0.25,0.06,0.43l-1.56,6.66c-0.07,0.31-0.25,0.46-0.56,0.46c-0.32,0-0.51-0.15-0.58-0.45l-1.52-5.58l-1.53,5.58
			C9.2,101.01,9.01,101.16,8.7,101.16z"/>
		<path class="st5" d="M16.78,101.16c-0.34,0-0.52-0.18-0.52-0.53v-6.64c0-0.35,0.17-0.53,0.52-0.53h3.94
			c0.35,0,0.53,0.16,0.53,0.47c0,0.32-0.18,0.47-0.53,0.47h-3.45v2.34h3.11c0.34,0,0.52,0.16,0.52,0.48c0,0.31-0.17,0.47-0.52,0.47
			h-3.11v2.51h3.59c0.35,0,0.53,0.16,0.53,0.47c0,0.32-0.18,0.47-0.53,0.47H16.78z"/>
		<path class="st5" d="M23.14,101.16c-0.32,0-0.47-0.16-0.47-0.48v-6.73c0-0.32,0.16-0.48,0.47-0.48h2.57c0.68,0,1.21,0.17,1.6,0.5
			c0.38,0.33,0.58,0.82,0.58,1.45c0,0.43-0.1,0.79-0.3,1.09s-0.46,0.5-0.78,0.62c0.42,0.1,0.76,0.32,1.03,0.69s0.4,0.79,0.4,1.29
			c0,0.69-0.2,1.21-0.61,1.55c-0.41,0.34-1,0.52-1.78,0.52H23.14z M23.67,96.72h1.94c0.39,0,0.69-0.11,0.89-0.32
			c0.21-0.21,0.31-0.5,0.31-0.85c0-0.76-0.42-1.14-1.27-1.14h-1.87V96.72z M23.67,100.22h2.07c0.5,0,0.86-0.1,1.09-0.3
			c0.23-0.2,0.34-0.52,0.34-0.94c0-0.41-0.14-0.73-0.41-0.96c-0.27-0.23-0.62-0.34-1.03-0.34h-2.06V100.22z"/>
		<path class="st5" d="M33.24,101.16c-0.34,0-0.52-0.18-0.52-0.53v-6.64c0-0.35,0.17-0.53,0.52-0.53h1.85
			c0.81,0,1.49,0.16,2.04,0.47c0.55,0.32,0.97,0.76,1.26,1.34c0.29,0.58,0.43,1.26,0.43,2.04c0,0.78-0.14,1.46-0.43,2.04
			s-0.71,1.03-1.26,1.34c-0.55,0.32-1.23,0.47-2.04,0.47H33.24z M33.73,100.22h1.3c0.62,0,1.13-0.12,1.53-0.37s0.71-0.59,0.92-1.02
			c0.21-0.44,0.31-0.94,0.31-1.51c0-0.58-0.1-1.09-0.31-1.52c-0.21-0.43-0.51-0.77-0.92-1.02s-0.92-0.37-1.53-0.37h-1.3V100.22z"/>
		<path class="st5" d="M40.64,101.16c-0.34,0-0.52-0.18-0.52-0.53v-6.64c0-0.35,0.17-0.53,0.52-0.53h3.94
			c0.35,0,0.53,0.16,0.53,0.47c0,0.32-0.18,0.47-0.53,0.47h-3.45v2.34h3.11c0.34,0,0.52,0.16,0.52,0.48c0,0.31-0.17,0.47-0.52,0.47
			h-3.11v2.51h3.59c0.35,0,0.53,0.16,0.53,0.47c0,0.32-0.18,0.47-0.53,0.47H40.64z"/>
		<path class="st5" d="M49.15,101.19c-0.14,0-0.27-0.04-0.39-0.12c-0.12-0.08-0.21-0.18-0.27-0.32l-2.42-6.68
			c-0.15-0.4-0.01-0.61,0.42-0.61c0.3,0,0.5,0.14,0.59,0.43l2.06,5.85l2.07-5.85c0.1-0.29,0.31-0.43,0.62-0.43
			c0.18,0,0.31,0.05,0.38,0.16c0.07,0.11,0.08,0.26,0.02,0.44l-2.43,6.68c-0.05,0.14-0.14,0.25-0.25,0.32
			C49.42,101.15,49.29,101.19,49.15,101.19z"/>
		<path class="st5" d="M53.96,101.16c-0.34,0-0.52-0.18-0.52-0.53v-6.64c0-0.35,0.17-0.53,0.52-0.53h3.94
			c0.35,0,0.53,0.16,0.53,0.47c0,0.32-0.18,0.47-0.53,0.47h-3.45v2.34h3.11c0.34,0,0.52,0.16,0.52,0.48c0,0.31-0.17,0.47-0.52,0.47
			h-3.11v2.51h3.59c0.35,0,0.53,0.16,0.53,0.47c0,0.32-0.18,0.47-0.53,0.47H53.96z"/>
		<path class="st5" d="M60.37,101.16c-0.34,0-0.52-0.18-0.52-0.53v-6.64c0-0.35,0.17-0.53,0.49-0.53c0.34,0,0.51,0.18,0.51,0.53
			v6.23h3.6c0.35,0,0.53,0.16,0.53,0.47c0,0.32-0.18,0.47-0.53,0.47H60.37z"/>
		<path class="st5" d="M69.25,101.33c-0.7,0-1.31-0.17-1.85-0.5s-0.96-0.79-1.26-1.4c-0.3-0.6-0.46-1.31-0.46-2.12
			s0.15-1.52,0.46-2.13c0.3-0.61,0.72-1.07,1.26-1.41c0.54-0.33,1.15-0.5,1.85-0.5c0.7,0,1.31,0.17,1.84,0.5
			c0.53,0.33,0.95,0.8,1.25,1.41c0.3,0.61,0.46,1.31,0.46,2.13s-0.15,1.52-0.46,2.12c-0.3,0.6-0.72,1.07-1.25,1.4
			C70.56,101.16,69.94,101.33,69.25,101.33z M69.25,100.34c0.5,0,0.94-0.12,1.31-0.38c0.38-0.25,0.67-0.6,0.88-1.05
			c0.21-0.45,0.31-0.99,0.31-1.6c0-0.62-0.1-1.16-0.31-1.61s-0.5-0.8-0.88-1.05c-0.38-0.25-0.82-0.37-1.31-0.37
			c-0.5,0-0.94,0.12-1.31,0.37c-0.38,0.25-0.67,0.6-0.89,1.05s-0.32,0.99-0.32,1.61c0,0.62,0.11,1.15,0.32,1.6
			c0.21,0.45,0.51,0.8,0.89,1.05C68.31,100.21,68.75,100.34,69.25,100.34z"/>
		<path class="st5" d="M74.6,101.16c-0.33,0-0.49-0.18-0.49-0.53v-6.65c0-0.35,0.17-0.52,0.52-0.52h2.93c0.73,0,1.29,0.17,1.69,0.51
			s0.6,0.87,0.6,1.61c0,0.74-0.2,1.28-0.6,1.63c-0.4,0.34-0.96,0.52-1.69,0.52h-2.44v2.92C75.11,100.99,74.94,101.16,74.6,101.16z
			 M75.11,96.76h2.32c0.44,0,0.78-0.09,1.01-0.28s0.35-0.49,0.35-0.91c0-0.41-0.12-0.71-0.35-0.89s-0.57-0.28-1.01-0.28h-2.32V96.76
			z"/>
		<path class="st5" d="M81.55,101.16c-0.34,0-0.52-0.18-0.52-0.53v-6.64c0-0.35,0.17-0.53,0.52-0.53h3.94
			c0.35,0,0.53,0.16,0.53,0.47c0,0.32-0.18,0.47-0.53,0.47h-3.45v2.34h3.11c0.34,0,0.52,0.16,0.52,0.48c0,0.31-0.17,0.47-0.52,0.47
			h-3.11v2.51h3.59c0.35,0,0.53,0.16,0.53,0.47c0,0.32-0.18,0.47-0.53,0.47H81.55z"/>
		<path class="st5" d="M87.94,101.16c-0.33,0-0.49-0.18-0.49-0.53v-6.65c0-0.35,0.17-0.52,0.52-0.52h2.93
			c0.73,0,1.29,0.17,1.69,0.51s0.6,0.87,0.6,1.61c0,0.65-0.16,1.15-0.47,1.5c-0.32,0.35-0.77,0.55-1.38,0.61l1.48,2.87
			c0.09,0.18,0.11,0.33,0.06,0.45c-0.05,0.11-0.16,0.17-0.33,0.17h-0.15c-0.29,0-0.5-0.13-0.62-0.4l-1.5-3.05h-1.83v2.92
			C88.45,100.99,88.28,101.16,87.94,101.16z M88.45,96.76h2.32c0.44,0,0.78-0.09,1.01-0.28s0.35-0.49,0.35-0.91
			c0-0.41-0.12-0.71-0.35-0.89s-0.57-0.28-1.01-0.28h-2.32V96.76z"/>
	</g>
</g>
</svg>
